#Comment line ignore any data following # character 
#Hierarchical Translation and Rotation (.htr) file 
[Header]	
#Header keywords are followed by a single value 
FileType HTR		#Single word string
DataType HTRS		#Translation followed by rotation and scale data
FileVersion 1		#integer
NumSegments 64		#integer
NumFrames 3		#integer
DataFrameRate 30		#integer, data frame rate in this file
EulerRotationOrder ZYX
CalibrationUnits mm
RotationUnits Degrees
GlobalAxisofGravity Y
BoneLengthAxis Y
ScaleFactor 1.00
[SegmentNames&Hierarchy]
#CHILD	PARENT
Pinger_Root GLOBAL
Pelvis Pinger_Root
L_Hip Pelvis
R_Hip Pelvis
Rear_Leg01 Pelvis
Spine1 Pelvis
L_Leg01 L_Hip
L_Leg02 L_Leg01
L_Leg03 L_Leg02
L_Foot L_Leg03
L_Toe1_01 L_Foot
L_Toe2_01 L_Foot
L_Toe3_01 L_Foot
planeAlignerLeft L_Foot
L_Toe1_02 L_Toe1_01
L_Toe1_03 L_Toe1_02
L_Toe2_02 L_Toe2_01
L_Toe2_03 L_Toe2_02
L_Toe3_02 L_Toe3_01
L_Toe3_03 L_Toe3_02
planeLockWeightLeft planeAlignerLeft
R_Leg01 R_Hip
R_Leg02 R_Leg01
R_Leg03 R_Leg02
R_Foot R_Leg03
planeAlignerRight R_Foot
R_Toe1_01 R_Foot
R_Toe2_01 R_Foot
R_Toe3_01 R_Foot
planeLockWeightRight planeAlignerRight
R_Toe1_02 R_Toe1_01
R_Toe1_03 R_Toe1_02
R_Toe2_02 R_Toe2_01
R_Toe2_03 R_Toe2_02
R_Toe3_02 R_Toe3_01
R_Toe3_03 R_Toe3_02
Rear_Leg02 Rear_Leg01
Rear_Leg03 Rear_Leg02
Rear_Leg04 Rear_Leg03
Rear_Foot Rear_Leg04
planeAlignerCenter Rear_Foot
Rear_Toe1_01 Rear_Foot
Rear_Toe2_01 Rear_Foot
Rear_Toe3_01 Rear_Foot
planeLockWeightCenter planeAlignerCenter
Rear_Toe1_02 Rear_Toe1_01
Rear_Toe1_03 Rear_Toe1_02
Rear_Toe2_02 Rear_Toe2_01
Rear_Toe2_03 Rear_Toe2_02
Rear_Toe3_02 Rear_Toe3_01
Rear_Toe3_03 Rear_Toe3_02
Back_Bone Spine1
Head Spine1
Motor_Bone Back_Bone
Ping_Mechanism Back_Bone
BN_LookIK Head
bottomMouth Head
L_Mouth01 Head
L_mouthFront Head
mouthGun Head
R_Mouth01 Head
R_mouthFront Head
TopMouth Head
weapon_bone Head
[BasePosition]
#SegmentName Tx, Ty, Tz, Rx, Ry, Rz, BoneLength
Pinger_Root 0.000000 0.000000 0.000000 -90.000000 0.000000 0.000000 10.000000 
Pelvis 0.000000 0.000000 0.000000 0.000000 0.000000 0.000000 10.000000 
L_Hip 0.000000 0.000000 0.000000 0.000000 0.000000 0.000000 10.000000 
R_Hip 0.000000 0.000000 0.000000 0.000000 0.000000 0.000000 10.000000 
Rear_Leg01 0.000000 0.000000 0.000000 0.000000 0.000000 0.000000 10.000000 
Spine1 0.000000 0.000000 0.000000 0.000000 0.000000 0.000000 10.000000 
L_Leg01 0.000000 0.000000 0.000000 0.000000 0.000000 0.000000 10.000000 
L_Leg02 0.000000 0.000000 0.000000 0.000000 0.000000 0.000000 10.000000 
L_Leg03 0.000000 0.000000 0.000000 0.000000 0.000000 0.000000 10.000000 
L_Foot 0.000000 0.000000 0.000000 0.000000 0.000000 0.000000 10.000000 
L_Toe1_01 0.000000 0.000000 0.000000 0.000000 0.000000 0.000000 10.000000 
L_Toe2_01 0.000000 0.000000 0.000000 0.000000 0.000000 0.000000 10.000000 
L_Toe3_01 0.000000 0.000000 0.000000 0.000000 0.000000 0.000000 10.000000 
planeAlignerLeft 0.000000 0.000000 0.000000 0.000000 0.000000 0.000000 10.000000 
L_Toe1_02 0.000000 0.000000 0.000000 0.000000 0.000000 0.000000 10.000000 
L_Toe1_03 0.000000 0.000000 0.000000 0.000000 0.000000 0.000000 10.000000 
L_Toe2_02 0.000000 0.000000 0.000000 0.000000 0.000000 0.000000 10.000000 
L_Toe2_03 0.000000 0.000000 0.000000 0.000000 0.000000 0.000000 10.000000 
L_Toe3_02 0.000000 0.000000 0.000000 0.000000 0.000000 0.000000 10.000000 
L_Toe3_03 0.000000 0.000000 0.000000 0.000000 0.000000 0.000000 10.000000 
planeLockWeightLeft 0.000000 0.000000 0.000000 0.000000 0.000000 0.000000 10.000000 
R_Leg01 0.000000 0.000000 0.000000 0.000000 0.000000 0.000000 10.000000 
R_Leg02 0.000000 0.000000 0.000000 0.000000 0.000000 0.000000 10.000000 
R_Leg03 0.000000 0.000000 0.000000 0.000000 0.000000 0.000000 10.000000 
R_Foot 0.000000 0.000000 0.000000 0.000000 0.000000 0.000000 10.000000 
planeAlignerRight 0.000000 0.000000 0.000000 0.000000 0.000000 0.000000 10.000000 
R_Toe1_01 0.000000 0.000000 0.000000 0.000000 0.000000 0.000000 10.000000 
R_Toe2_01 0.000000 0.000000 0.000000 0.000000 0.000000 0.000000 10.000000 
R_Toe3_01 0.000000 0.000000 0.000000 0.000000 0.000000 0.000000 10.000000 
planeLockWeightRight 0.000000 0.000000 0.000000 0.000000 0.000000 0.000000 10.000000 
R_Toe1_02 0.000000 0.000000 0.000000 0.000000 0.000000 0.000000 10.000000 
R_Toe1_03 0.000000 0.000000 0.000000 0.000000 0.000000 0.000000 10.000000 
R_Toe2_02 0.000000 0.000000 0.000000 0.000000 0.000000 0.000000 10.000000 
R_Toe2_03 0.000000 0.000000 0.000000 0.000000 0.000000 0.000000 10.000000 
R_Toe3_02 0.000000 0.000000 0.000000 0.000000 0.000000 0.000000 10.000000 
R_Toe3_03 0.000000 0.000000 0.000000 0.000000 0.000000 0.000000 10.000000 
Rear_Leg02 0.000000 0.000000 0.000000 0.000000 0.000000 0.000000 10.000000 
Rear_Leg03 0.000000 0.000000 0.000000 0.000000 0.000000 0.000000 10.000000 
Rear_Leg04 0.000000 0.000000 0.000000 0.000000 0.000000 0.000000 10.000000 
Rear_Foot 0.000000 0.000000 0.000000 0.000000 0.000000 0.000000 10.000000 
planeAlignerCenter 0.000000 0.000000 0.000000 0.000000 0.000000 0.000000 10.000000 
Rear_Toe1_01 0.000000 0.000000 0.000000 0.000000 0.000000 0.000000 10.000000 
Rear_Toe2_01 0.000000 0.000000 0.000000 0.000000 0.000000 0.000000 10.000000 
Rear_Toe3_01 0.000000 0.000000 0.000000 0.000000 0.000000 0.000000 10.000000 
planeLockWeightCenter 0.000000 0.000000 0.000000 0.000000 0.000000 0.000000 10.000000 
Rear_Toe1_02 0.000000 0.000000 0.000000 0.000000 0.000000 0.000000 10.000000 
Rear_Toe1_03 0.000000 0.000000 0.000000 0.000000 0.000000 0.000000 10.000000 
Rear_Toe2_02 0.000000 0.000000 0.000000 0.000000 0.000000 0.000000 10.000000 
Rear_Toe2_03 0.000000 0.000000 0.000000 0.000000 0.000000 0.000000 10.000000 
Rear_Toe3_02 0.000000 0.000000 0.000000 0.000000 0.000000 0.000000 10.000000 
Rear_Toe3_03 0.000000 0.000000 0.000000 0.000000 0.000000 0.000000 10.000000 
Back_Bone 0.000000 0.000000 0.000000 0.000000 0.000000 0.000000 10.000000 
Head 0.000000 0.000000 0.000000 0.000000 0.000000 0.000000 10.000000 
Motor_Bone 0.000000 0.000000 0.000000 0.000000 0.000000 0.000000 10.000000 
Ping_Mechanism 0.000000 0.000000 0.000000 0.000000 0.000000 0.000000 10.000000 
BN_LookIK 0.000000 0.000000 0.000000 0.000000 0.000000 0.000000 10.000000 
bottomMouth 0.000000 0.000000 0.000000 0.000000 0.000000 0.000000 10.000000 
L_Mouth01 0.000000 0.000000 0.000000 0.000000 0.000000 0.000000 10.000000 
L_mouthFront 0.000000 0.000000 0.000000 0.000000 0.000000 0.000000 10.000000 
mouthGun 0.000000 0.000000 0.000000 0.000000 0.000000 0.000000 10.000000 
R_Mouth01 0.000000 0.000000 0.000000 0.000000 0.000000 0.000000 10.000000 
R_mouthFront 0.000000 0.000000 0.000000 0.000000 0.000000 0.000000 10.000000 
TopMouth 0.000000 0.000000 0.000000 0.000000 0.000000 0.000000 10.000000 
weapon_bone 0.000000 0.000000 0.000000 0.000000 0.000000 0.000000 10.000000 
#Beginning of Data. Separated by tabs
#Fr	Tx	Ty	Tz	Rx	Ry	Rz	SF
[Pinger_Root]
42 0.000000 5314.812500 0.000000 -0.000075 -0.000000 -0.000020 5314.812500
43 0.000000 5444.442383 0.000000 -0.000075 -0.000000 -0.000020 5444.442383
44 0.000000 5574.071777 0.000000 -0.000075 -0.000000 -0.000020 5574.071777
[Pelvis]
42 480.872498 1117.890015 5124.861816 -105.692451 -76.092041 118.179375 5267.364258
43 489.694305 1142.963989 5065.436523 -107.577713 -73.317848 117.016151 5215.823242
44 508.797882 1169.326904 5013.692871 -109.767776 -71.313446 116.389610 5173.327637
[L_Hip]
42 5.766392 125.831482 872.656799 -178.250168 -81.786369 87.376007 881.701050
43 5.766392 125.831482 872.656799 -178.250168 -81.786369 87.376007 881.701050
44 5.766392 125.831482 872.656799 -178.250168 -81.786369 87.376007 881.701050
[R_Hip]
42 5.765438 125.836372 -872.654907 -1.748770 81.786041 87.376961 881.699829
43 5.765438 125.836372 -872.654907 -1.748770 81.786041 87.376961 881.699829
44 5.765438 125.836372 -872.654907 -1.748770 81.786041 87.376961 881.699829
[Rear_Leg01]
42 -192.298416 -925.602966 -0.001907 -179.786392 -18.053732 -161.044693 945.367432
43 -192.298416 -925.602966 -0.001907 176.564529 -17.196243 -160.560806 945.367432
44 -192.298416 -925.602966 -0.001907 173.085861 -16.341375 -159.345657 945.367432
[Spine1]
42 290.604584 5.007505 0.000477 -11.720375 10.053756 16.684715 290.647736
43 290.604584 5.007505 0.000477 -8.564163 9.585315 13.683372 290.647736
44 290.604584 5.007505 0.000477 -5.601156 9.309216 11.425076 290.647736
[L_Leg01]
42 761.932007 -0.002384 -0.069261 17.534254 -67.878426 -3.826760 761.932068
43 761.932007 -0.002384 -0.069261 11.352763 -65.796577 1.063314 761.932068
44 761.932007 -0.002384 -0.069261 43.761387 -56.731010 -35.879868 761.932068
[L_Leg02]
42 1441.140503 -0.000954 -0.000715 4.343675 -0.539610 -150.950897 1441.140503
43 1441.140503 -0.000954 -0.000715 1.989079 -0.506160 -138.535110 1441.140503
44 1441.140503 -0.000954 -0.000715 -1.428182 0.603618 -102.588287 1441.140503
[L_Leg03]
42 1686.963989 -0.000715 -0.000954 -0.014038 0.006656 114.717812 1686.963989
43 1686.963989 -0.000715 -0.000954 0.019193 -0.006089 105.203659 1686.963989
44 1686.963989 -0.000715 -0.000954 0.046994 -0.013687 97.715080 1686.963989
[L_Foot]
42 3041.570068 -30.715107 11.297464 0.847649 5.590695 71.436142 3041.746094
43 3041.570068 -30.715107 11.297464 -3.449302 5.922972 61.395702 3041.746094
44 3041.570068 -30.715107 11.297464 -11.609241 5.590599 40.820419 3041.746094
[L_Toe1_01]
42 -188.216690 -224.732346 -21.137953 88.697578 -1.790822 -139.676758 293.899567
43 -188.216690 -224.732346 -21.137953 89.041458 -2.032872 -151.330872 293.899567
44 -188.216690 -224.732346 -21.137953 89.233749 -2.123807 -157.877930 293.899567
[L_Toe2_01]
42 200.746536 -219.926590 148.838394 -73.929466 -3.614537 -71.727211 332.896027
43 200.746536 -219.926590 148.838394 -75.307571 -6.631004 -61.258354 332.896027
44 200.746536 -219.926590 148.838394 -76.712158 -8.894030 -53.170139 332.896027
[L_Toe3_01]
42 188.832520 -219.859131 -191.078659 -110.448608 4.306504 -72.801888 347.140900
43 188.832520 -219.859131 -191.078659 -108.808296 8.104512 -62.694363 347.140900
44 188.832520 -219.859131 -191.078659 -107.223381 10.826004 -55.312725 347.140900
[planeAlignerLeft]
42 136.135712 -757.641724 -10.952141 0.000000 -90.000000 -90.001900 769.853088
43 130.304657 -752.297913 -6.841493 0.000000 -90.000000 -90.001900 763.530151
44 113.193008 -749.301453 0.041246 0.000000 -90.000000 -90.001900 757.802979
[L_Toe1_02]
42 413.761139 0.000477 0.000000 0.001479 -15.076690 0.001479 413.761139
43 413.761139 0.000477 0.000000 0.001460 -16.974566 0.001460 413.761139
44 413.761139 0.000477 0.000000 0.001424 -20.961039 0.001424 413.761139
[L_Toe1_03]
42 464.317322 0.000358 -0.000089 -179.997635 74.038864 -179.994095 464.317322
43 464.317322 0.000358 -0.000089 -179.995392 79.651360 -179.991882 464.317322
44 464.317322 0.000358 -0.000089 0.043953 86.939957 0.043953 464.317322
[L_Toe2_02]
42 342.235809 -0.000477 0.000238 0.001181 -77.443008 0.001181 342.235809
43 342.235809 -0.000477 0.000238 0.001185 -74.388252 0.001185 342.235809
44 342.235809 -0.000477 0.000238 -0.008632 -64.891273 0.007454 342.235809
[L_Toe2_03]
42 420.210846 -0.000715 0.000000 -179.996063 78.414101 -179.992554 420.210846
43 420.210846 -0.000715 0.000000 -179.929779 89.084862 -179.926285 420.210846
44 420.210846 -0.000715 0.000000 -0.001414 69.250771 -0.004969 420.210846
[L_Toe3_02]
42 329.270111 0.000954 0.000000 0.001177 -81.149315 0.001177 329.270111
43 329.270111 0.000954 0.000000 0.001180 -78.454552 0.001180 329.270111
44 329.270111 0.000954 0.000000 -0.010873 -70.434761 0.009706 329.270111
[L_Toe3_03]
42 439.137451 -0.001907 0.000954 -179.997086 75.908730 -179.993561 439.137451
43 439.137451 -0.001907 0.000954 -179.986069 85.800072 -179.982559 439.137451
44 439.137451 -0.001907 0.000954 -0.002458 74.355438 -0.005988 439.137451
[planeLockWeightLeft]
42 647.995178 0.098267 0.075989 -0.011826 -0.004376 0.005620 647.995178
43 895.996094 0.097656 0.076141 -0.011826 -0.004376 0.005620 895.996094
44 999.998108 0.098267 0.076389 -0.011826 -0.004376 0.005620 999.998108
[R_Leg01]
42 761.455627 -0.001907 -0.000358 134.674774 -23.449736 71.556389 761.455688
43 761.455627 -0.001907 -0.000358 134.408463 -30.185909 69.065941 761.455688
44 761.455627 -0.001907 -0.000358 133.676666 -35.091572 68.037720 761.455688
[R_Leg02]
42 1441.140625 0.000000 -0.000238 0.177312 -0.030474 -105.965080 1441.140625
43 1441.140625 0.000000 -0.000238 0.143091 -0.038072 -112.534950 1441.140625
44 1441.140625 0.000000 -0.000238 0.111058 -0.058599 -116.846916 1441.140625
[R_Leg03]
42 1686.963989 0.000954 0.001431 -0.021499 0.006303 104.723366 1686.963989
43 1686.963989 0.000954 0.001431 -0.026583 0.008395 103.352211 1686.963989
44 1686.963989 0.000954 0.001431 -0.031716 0.010365 101.981033 1686.963989
[R_Foot]
42 3041.560059 -30.531288 -11.204481 7.784073 -5.979539 69.514023 3041.734131
43 3041.560059 -30.531288 -11.204481 7.878738 -5.697297 72.890114 3041.734131
44 3041.560059 -30.531288 -11.204481 7.837988 -5.556476 75.848839 3041.734131
[planeAlignerRight]
42 7.822347 -776.283203 2.895541 0.000000 -89.960434 -90.005180 776.328003
43 3.442450 -795.121704 1.178691 0.000000 -89.960434 -90.005180 795.130005
44 0.471847 -807.607605 0.050104 0.000000 -89.960434 -90.005180 807.607727
[R_Toe1_01]
42 -188.383347 -224.864899 21.052242 90.956772 1.728817 -152.632660 294.101532
43 -188.383347 -224.864899 21.052242 91.004112 1.777032 -150.845886 294.101532
44 -188.383347 -224.864899 21.052242 91.057640 1.803988 -149.632217 294.101532
[R_Toe2_01]
42 200.637817 -220.002121 -148.787384 -104.209160 9.613336 -56.001846 332.857574
43 200.637817 -220.002121 -148.787384 -104.502686 9.435788 -57.438026 332.857574
44 200.637817 -220.002121 -148.787384 -104.670891 9.331553 -58.273441 332.857574
[R_Toe3_01]
42 188.606735 -220.092957 191.126343 -71.403862 -12.118940 -58.015656 347.192566
43 188.606735 -220.092957 191.126343 -71.119301 -11.655606 -59.411430 347.192566
44 188.606735 -220.092957 191.126343 -70.951546 -11.387745 -60.231369 347.192566
[planeLockWeightRight]
42 999.999512 0.000000 0.076184 -0.011823 -0.004379 -0.000027 999.999512
43 999.999451 0.000000 0.076193 -0.011823 -0.004379 -0.000027 999.999451
44 999.999451 0.000000 0.076202 -0.011823 -0.004379 -0.000027 999.999451
[R_Toe1_02]
42 413.762085 0.000477 -0.000119 0.001394 -24.679718 0.001394 413.762085
43 413.762085 0.000477 -0.000119 0.001392 -24.931355 0.001392 413.762085
44 413.762085 0.000477 -0.000119 0.001390 -25.182983 0.001390 413.762085
[R_Toe1_03]
42 464.317810 0.000000 0.001088 0.006591 69.485031 0.006591 464.317810
43 464.317810 0.000000 0.001088 0.005781 66.573265 0.005781 464.317810
44 464.317810 0.000000 0.001088 0.005322 64.520393 0.005322 464.317810
[R_Toe2_02]
42 342.234741 -0.000954 0.000238 0.000480 -71.614052 0.000480 342.234741
43 342.234741 -0.000954 0.000238 0.001190 -70.816475 0.001190 342.234741
44 342.234741 -0.000954 0.000238 0.001191 -70.471367 0.001191 342.234741
[R_Toe2_03]
42 420.210846 0.000715 -0.000268 0.020225 83.346687 0.020225 420.210846
43 420.210846 0.000715 -0.000268 0.015896 81.531952 0.015896 420.210846
44 420.210846 0.000715 -0.000268 0.013868 80.290436 0.013868 420.210846
[R_Toe3_02]
42 329.270355 -0.000477 -0.000954 0.001183 -75.861862 0.001183 329.270355
43 329.270355 -0.000477 -0.000954 0.001183 -75.209953 0.001183 329.270355
44 329.270355 -0.000477 -0.000954 0.001184 -74.935799 0.001184 329.270355
[R_Toe3_03]
42 439.137939 0.000238 0.001431 -0.020966 86.572174 -0.017468 439.137939
43 439.137939 0.000238 0.001431 -0.015085 85.059692 -0.011585 439.137939
44 439.137939 0.000238 0.001431 -0.012764 84.017059 -0.009262 439.137939
[Rear_Leg02]
42 1162.777710 -0.029802 0.005960 0.187704 0.264808 -67.679062 1162.777710
43 1162.777710 -0.029802 0.005960 -0.682957 -1.366913 -63.366154 1162.777710
44 1162.777710 -0.029802 0.005960 -1.873786 -2.998898 -58.171616 1162.777710
[Rear_Leg03]
42 607.192505 -0.013351 -0.073195 0.004850 0.003703 48.592785 607.192505
43 607.192505 -0.013351 -0.073195 0.004154 0.005396 46.969383 607.192505
44 607.192505 -0.013351 -0.073195 0.004052 0.005474 44.810379 607.192505
[Rear_Leg04]
42 995.874512 -0.020504 -0.011921 -0.033227 -0.014633 31.387722 995.874573
43 995.874512 -0.020504 -0.011921 -0.032899 -0.015319 28.989973 995.874573
44 995.874512 -0.020504 -0.011921 -0.031363 -0.011389 25.869211 995.874573
[Rear_Foot]
42 3096.176270 -0.067472 -0.041425 179.167252 78.697281 19.745014 3096.176270
43 3096.176270 -0.067472 -0.041425 -173.943344 78.011292 28.592583 3096.176270
44 3096.176270 -0.067472 -0.041425 -167.570236 76.558624 37.339737 3096.176270
[planeAlignerCenter]
42 1.027188 109.887741 -779.182739 0.000009 0.000003 -179.999985 786.893982
43 1.027927 114.179771 -797.306030 0.000009 0.000003 -179.999985 805.440918
44 1.029139 116.363953 -809.252563 0.000009 0.000003 -179.999985 817.576477
[Rear_Toe1_01]
42 0.653352 83.966492 -371.173737 0.056321 28.268305 90.027847 380.553192
43 0.653352 83.966492 -371.173737 0.056291 29.689398 90.025764 380.553192
44 0.653352 83.966492 -371.173737 0.058291 30.558584 90.031929 380.553192
[Rear_Toe2_01]
42 178.200760 -294.826019 -362.060547 1.784300 52.059536 -68.667511 499.765686
43 178.200760 -294.826019 -362.060547 1.953585 53.382439 -68.473526 499.765686
44 178.200760 -294.826019 -362.060547 2.059260 54.227970 -68.361977 499.765686
[Rear_Toe3_01]
42 -153.359680 -308.780914 -362.060852 -2.148003 52.051769 -113.957680 499.952881
43 -153.359680 -308.780914 -362.060852 -2.341509 53.370052 -114.175842 499.952881
44 -153.359680 -308.780914 -362.060852 -2.451865 54.206604 -114.297989 499.952881
[planeLockWeightCenter]
42 1000.000244 0.000318 0.076275 -0.011814 -0.004373 -0.000015 1000.000244
43 1000.000244 0.000313 0.076278 -0.011814 -0.004373 -0.000015 1000.000244
44 1000.000244 0.000309 0.076281 -0.011814 -0.004373 -0.000015 1000.000244
[Rear_Toe1_02]
42 379.707825 0.194073 0.000477 -0.000767 -33.624729 0.000838 379.707855
43 379.707825 0.194073 0.000477 -0.000767 -33.624729 0.000838 379.707855
44 379.707825 0.194073 0.000477 -0.000767 -33.624729 0.000838 379.707855
[Rear_Toe1_03]
42 500.129700 0.165701 0.000119 -0.001631 58.282059 0.003823 500.129761
43 500.129700 0.165701 0.000119 0.000285 55.410889 0.007610 500.129761
44 500.129700 0.165701 0.000119 0.000056 53.414505 0.007422 500.129761
[Rear_Toe2_02]
42 340.494507 0.000238 -0.000954 0.001175 -84.621414 0.001175 340.494507
43 340.494507 0.000238 -0.000954 0.001175 -84.174156 0.001175 340.494507
44 340.494507 0.000238 -0.000954 0.001175 -83.726707 0.001175 340.494507
[Rear_Toe2_03]
42 433.103577 0.000000 0.000238 179.982758 82.195313 179.982758 433.103546
43 433.103577 0.000000 0.000238 179.979614 83.399605 179.979614 433.103546
44 433.103577 0.000000 0.000238 179.976440 84.290276 179.976440 433.103546
[Rear_Toe3_02]
42 340.494141 -0.000358 -0.000477 0.001175 -84.492203 0.001175 340.494171
43 340.494141 -0.000358 -0.000477 0.001175 -84.043198 0.001175 340.494171
44 340.494141 -0.000358 -0.000477 0.001175 -83.593994 0.001175 340.494171
[Rear_Toe3_03]
42 433.103577 0.001431 -0.000238 -179.992950 82.517426 -179.989441 433.103546
43 433.103577 0.001431 -0.000238 -179.991241 83.731178 -179.987747 433.103546
44 433.103577 0.001431 -0.000238 -179.989502 84.624184 -179.985992 433.103546
[Back_Bone]
42 1312.175781 -701.934692 0.000954 1.019727 3.184313 -80.531158 1488.125488
43 1312.175781 -701.934692 0.000954 0.692627 3.184909 -80.348091 1488.125488
44 1312.175781 -701.934692 0.000954 0.365533 3.186547 -80.165024 1488.125488
[Head]
42 1406.159424 809.709290 0.001431 2.850383 0.706112 3.715493 1622.625488
43 1406.159424 809.709290 0.001431 2.537642 0.960230 4.327978 1622.625488
44 1406.159424 809.709290 0.001431 2.227608 1.217670 4.939106 1622.625488
[Motor_Bone]
42 1158.364380 -417.834747 0.000477 1.113721 -1.125686 -107.115891 1231.419434
43 1158.364380 -417.834747 0.000477 -1.034866 -1.069922 -107.053192 1231.419434
44 1158.364380 -417.834747 0.000477 -2.188870 -0.972377 -106.959076 1231.419434
[Ping_Mechanism]
42 1268.200195 -464.578735 -32.016727 0.000103 -0.000053 82.120995 1350.995972
43 1281.761475 -469.930908 -37.362053 0.000103 -0.000053 82.120995 1365.702637
44 1291.494629 -472.144135 -40.268166 0.000103 -0.000053 82.120995 1375.681641
[BN_LookIK]
42 193.241119 1380.371704 -0.002861 0.000000 89.965736 -31.038179 1393.832153
43 193.241119 1380.371704 -0.002861 0.000000 89.965736 -31.038179 1393.832153
44 193.241119 1380.371704 -0.002861 0.000000 89.965736 -31.038179 1393.832153
[bottomMouth]
42 -435.092926 615.759399 -0.000954 -0.000022 0.000016 73.527184 753.966492
43 -435.092926 615.759399 -0.000954 -0.000022 0.000016 73.527184 753.966492
44 -435.092926 615.759399 -0.000954 -0.000022 0.000016 73.527184 753.966492
[L_Mouth01]
42 554.440979 7.658243 838.222046 150.204178 23.759130 109.605339 1005.027161
43 554.440979 7.658243 838.222046 150.204178 23.759130 109.605339 1005.027161
44 554.440979 7.658243 838.222046 150.204178 23.759130 109.605339 1005.027161
[L_mouthFront]
42 551.629089 934.514771 339.150421 0.000081 2.804060 79.119301 1136.941284
43 551.629089 934.514771 339.150421 0.000081 2.804060 79.119301 1136.941284
44 551.629089 934.514771 339.150421 0.000081 2.804060 79.119301 1136.941284
[mouthGun]
42 55.332661 1627.420898 0.000000 0.000023 0.000009 -11.038128 1628.361328
43 55.332661 1627.420898 0.000000 0.000023 0.000009 -11.038128 1628.361328
44 55.332661 1627.420898 0.000000 0.000023 0.000009 -11.038128 1628.361328
[R_Mouth01]
42 554.442383 7.659197 -838.223938 29.795891 -23.759109 109.605331 1005.029541
43 554.442383 7.659197 -838.223938 29.795891 -23.759109 109.605331 1005.029541
44 554.442383 7.659197 -838.223938 29.795891 -23.759109 109.605331 1005.029541
[R_mouthFront]
42 551.629089 934.514282 -339.151367 0.000029 -2.803930 79.119133 1136.941162
43 551.629089 934.514282 -339.151367 0.000029 -2.803930 79.119133 1136.941162
44 551.629089 934.514282 -339.151367 0.000029 -2.803930 79.119133 1136.941162
[TopMouth]
42 461.269867 -56.106091 -0.008583 -0.000059 -0.000268 92.025169 464.669525
43 461.269867 -56.106091 -0.008583 -0.000059 -0.000268 92.025169 464.669525
44 461.269867 -56.106091 -0.008583 -0.000059 -0.000268 92.025169 464.669525
[weapon_bone]
42 -987.239868 1448.372803 0.001431 0.000000 89.965736 -31.038221 1752.833740
43 -987.239868 1448.372803 0.001431 0.000000 89.965736 -31.038221 1752.833740
44 -987.239868 1448.372803 0.001431 0.000000 89.965736 -31.038221 1752.833740
